<svg id="Productie" xmlns="http://www.w3.org/2000/svg" viewBox="0 0 48 48"><title>surface.colors-grey-blueBrand</title><path id="Surface" d="M38.5,32.25V15.75A5,5,0,1,0,32.25,9.5H15.75A5,5,0,1,0,9.5,15.75V32.25a5,5,0,1,0,6.25,6.25H32.25a5,5,0,1,0,6.25-6.25ZM32.25,35.5H15.75a5,5,0,0,0-3.25-3.25V15.75a5,5,0,0,0,3.25-3.25H32.25a5,5,0,0,0,3.25,3.25V32.25A5,5,0,0,0,32.25,35.5ZM37,9a2,2,0,1,1-2,2A2,2,0,0,1,37,9ZM11,9a2,2,0,1,1-2,2A2,2,0,0,1,11,9Zm0,30a2,2,0,1,1,2-2A2,2,0,0,1,11,39Zm26,0a2,2,0,1,1,2-2A2,2,0,0,1,37,39Z"/></svg>